<svg width="511" height="390" viewBox="0 0 511 390" fill="none" xmlns="http://www.w3.org/2000/svg">
<rect x="9.17473" y="156.138" width="257.058" height="229.839" transform="rotate(-11.1668 9.17473 156.138)" stroke="black" stroke-width="2"/>
<rect x="253" y="99.6807" width="13.8419" height="13.9099" transform="rotate(-11.1668 253 99.6807)" fill="black"/>
<rect x="46" y="375.681" width="13.8419" height="13.9099" transform="rotate(-11.1668 46 375.681)" fill="black"/>
<rect x="299" y="323.681" width="13.8419" height="13.9099" transform="rotate(-11.1668 299 323.681)" fill="black"/>
<rect y="148.681" width="13.8419" height="13.9099" transform="rotate(-11.1668 0 148.681)" fill="black"/>
<rect x="182.966" y="37.6271" width="162.162" height="144.992" transform="rotate(2.33215 182.966 37.6271)" stroke="black" stroke-width="1.26168"/>
<rect x="340.846" y="38.9" width="8.73205" height="8.77493" transform="rotate(2.33215 340.846 38.9)" fill="black"/>
<rect x="173.227" y="177.72" width="8.73205" height="8.77493" transform="rotate(2.33215 173.227 177.72)" fill="black"/>
<rect x="336.077" y="183.078" width="8.73205" height="8.77493" transform="rotate(2.33215 336.077 183.078)" fill="black"/>
<rect x="178.437" y="31.7016" width="8.73205" height="8.77493" transform="rotate(2.33215 178.437 31.7016)" fill="black"/>
<path d="M352.014 270.505L347.424 249.845L366.297 259.451L357.007 262.136L356.842 262.184L356.756 262.332L352.014 270.505Z" fill="#0160DE" stroke="white" stroke-width="0.854767"/>
<rect x="372.354" y="275.089" width="138.088" height="38.0881" rx="19.044" fill="#0160DE"/>
<rect x="372.354" y="275.089" width="138.088" height="38.0881" rx="19.044" stroke="white" stroke-width="0.911908"/>
<path d="M392.931 298.916C391.088 298.916 390.149 297.465 390.149 295.451C390.149 293.47 391.156 291.985 393.016 291.985C394.126 291.985 394.809 292.532 395.116 293.351H395.201V292.122H396.823V296.475C396.823 297.209 397.096 297.533 397.779 297.533C398.615 297.533 398.923 296.953 398.923 295.007C398.923 291.456 397.437 290.005 393.853 290.005C390.285 290.005 388.493 291.49 388.493 295.399C388.493 299.206 390.217 300.674 393.614 300.674C394.57 300.674 395.253 300.503 396.038 300.264L396.43 301.681C395.509 302.005 394.553 302.176 393.375 302.176C389.21 302.176 386.752 299.65 386.752 295.399C386.752 291.149 389.551 288.384 393.938 288.384C398.086 288.384 400.578 290.722 400.578 294.648C400.578 297.277 399.554 298.933 397.574 298.933C396.243 298.933 395.492 298.352 395.218 297.448H395.184C394.877 298.301 394.143 298.916 392.931 298.916ZM391.873 295.451C391.873 296.884 392.317 297.533 393.494 297.533C394.604 297.533 395.099 297.072 395.099 295.963V294.938C395.099 293.829 394.621 293.368 393.511 293.368C392.282 293.368 391.873 294 391.873 295.451ZM407.136 299.803C403.875 299.803 402.629 298.318 402.629 296.133V295.86H404.439V296.116C404.439 297.55 404.917 298.113 407.17 298.113C408.979 298.113 409.696 297.67 409.696 296.338C409.696 294.904 409.065 294.478 407.477 294.478H405.19V292.941H407.221C408.723 292.941 409.304 292.566 409.304 291.371C409.304 290.176 408.621 289.715 407.016 289.715C405.036 289.715 404.439 290.278 404.439 291.712V291.849H402.629V291.695C402.629 289.51 404.166 288.025 407.033 288.025C409.611 288.025 411.147 289.084 411.147 291.081C411.147 292.395 410.481 293.368 409.03 293.573V293.641C410.601 293.863 411.557 294.887 411.557 296.526C411.557 298.728 409.781 299.803 407.136 299.803ZM418.564 299.633H416.243L412.846 291.149H414.894L417.37 297.874H417.489L419.981 291.149H421.978L418.564 299.633ZM426.801 299.803C424.002 299.803 422.687 298.028 422.687 295.382C422.687 292.754 424.258 290.978 426.784 290.978C429.071 290.978 430.676 292.344 430.676 294.665C430.676 295.109 430.625 295.57 430.573 295.826H424.411C424.48 297.379 425.043 298.165 426.818 298.165C428.235 298.165 428.781 297.687 428.781 296.919V296.782H430.608V296.936C430.608 298.677 429.088 299.803 426.801 299.803ZM426.75 292.532C425.145 292.532 424.531 293.283 424.428 294.597H428.918C428.986 293.146 428.201 292.532 426.75 292.532ZM434.503 299.633H432.659V291.098H434.349V292.446H434.434C434.776 291.661 435.561 290.978 436.807 290.978C438.582 290.978 439.265 292.276 439.265 293.863V294.426H437.421V294.085C437.421 292.958 437.097 292.549 436.022 292.549C434.912 292.549 434.503 292.975 434.503 294.102V299.633ZM442.646 299.633H440.956V288.196H442.799V292.498H442.833C443.209 291.729 444.182 290.978 445.684 290.978C448.023 290.978 449.252 292.702 449.252 295.382C449.252 298.079 447.954 299.803 445.582 299.803C444.114 299.803 443.124 299.223 442.714 298.233H442.646V299.633ZM442.799 296.15C442.799 297.567 443.619 298.233 445.104 298.233C446.742 298.233 447.425 297.482 447.425 295.382C447.425 293.3 446.725 292.549 445.104 292.549C443.619 292.549 442.799 293.214 442.799 294.631V296.15ZM453.013 299.633H451.17V288.196H453.013V299.633ZM457.57 299.803C456.051 299.803 454.873 299.018 454.873 297.533C454.873 296.133 455.898 295.399 457.707 295.143L460.677 294.699V294.239C460.677 292.975 460.097 292.6 458.765 292.6C457.417 292.6 456.888 293.027 456.888 294.153V294.409H455.112V294.239C455.112 292.344 456.597 290.978 458.868 290.978C461.24 290.978 462.435 292.412 462.435 294.478V299.633H460.728V298.301H460.643C460.148 299.103 459.175 299.803 457.57 299.803ZM456.666 297.396C456.666 298.062 457.092 298.335 458.168 298.335C459.363 298.335 460.677 297.857 460.677 296.15V295.997L457.98 296.406C457.007 296.543 456.666 296.765 456.666 297.396ZM472.093 299.633H464.07V298.182L468.201 293.983L469.293 292.907V292.771H464.326V291.149H471.837V292.719L467.586 296.919L466.596 297.874V298.011H472.093V299.633ZM475.383 290.074H473.557L473.54 288.196H475.383V290.074ZM475.401 299.633H473.557V291.098H475.401V299.633ZM479.449 299.633H477.605V291.149H479.295V292.736H479.364C479.756 291.832 480.661 290.978 482.317 290.978C484.519 290.978 485.509 292.378 485.509 294.307V299.633H483.665V294.717C483.665 293.197 483.187 292.566 481.634 292.566C480.132 292.566 479.449 293.146 479.449 294.734V299.633ZM491.047 298.83C488.708 298.83 487.411 297.294 487.411 294.904C487.411 292.515 488.725 290.978 491.115 290.978C492.481 290.978 493.539 291.559 493.949 292.549H494.017V291.149H495.707V299.018C495.707 301.527 494.239 302.705 491.764 302.705C489.357 302.705 487.855 301.561 487.855 299.513H489.681C489.681 300.674 490.108 301.066 491.815 301.066C493.471 301.066 493.88 300.589 493.88 299.018V297.328H493.812C493.42 298.148 492.43 298.83 491.047 298.83ZM489.255 294.904C489.255 296.645 489.972 297.26 491.576 297.26C492.959 297.26 493.88 296.594 493.88 295.16V294.631C493.88 293.214 492.959 292.549 491.542 292.549C489.954 292.549 489.255 293.163 489.255 294.904Z" fill="white"/>
</svg>
